<?xml version="1.0" standalone="no"?>
<!DOCTYPE svg PUBLIC "-//W3C//DTD SVG 20010904//EN"
 "http://www.w3.org/TR/2001/REC-SVG-20010904/DTD/svg10.dtd">
<svg version="1.0" xmlns="http://www.w3.org/2000/svg"
 width="231.000000pt" height="230.000000pt" viewBox="0 0 231.000000 230.000000"
 preserveAspectRatio="xMidYMid meet">

<g transform="translate(0.000000,230.000000) scale(0.100000,-0.100000)"
fill="#000000" stroke="none">
<path d="M32 1508 l3 -773 37 -78 c61 -127 164 -221 294 -268 45 -17 83 -22
159 -22 116 -1 193 21 282 80 l52 35 34 -26 c49 -37 137 -74 209 -86 42 -8
189 -10 424 -8 341 4 362 5 418 26 109 41 210 123 269 219 95 153 93 372 -5
525 -40 63 -134 149 -198 181 l-51 25 62 34 c114 60 200 164 241 288 19 58 22
94 26 343 l4 277 -181 0 -181 0 0 -247 c0 -277 -4 -297 -69 -340 -27 -18 -48
-23 -102 -23 l-69 0 0 305 0 305 -180 0 -180 0 0 -310 0 -310 -22 0 c-33 0
-119 -42 -161 -79 -43 -39 -75 -87 -93 -144 -12 -40 -13 -38 -13 66 l-1 107
-180 0 -179 0 -3 -392 c-3 -388 -3 -393 -26 -429 -59 -96 -200 -90 -253 11
-18 33 -19 73 -19 757 l0 723 -175 0 -176 0 3 -772z m288 25 c0 -449 4 -701
11 -726 5 -21 24 -54 42 -74 98 -112 271 -92 338 39 18 35 19 63 19 408 l0
370 125 0 125 0 0 -364 0 -364 28 -53 c56 -107 196 -142 294 -73 67 47 88 98
88 216 l0 98 120 0 120 0 0 -98 c0 -168 -39 -270 -141 -367 -164 -156 -417
-165 -586 -20 l-42 36 -61 -45 c-33 -25 -86 -54 -116 -66 -263 -98 -549 71
-593 350 -7 40 -11 324 -11 743 l0 677 120 0 120 0 0 -687z m1310 262 l0 -425
-120 0 -120 0 0 425 0 425 120 0 120 0 0 -425z m600 218 c0 -239 -8 -301 -49
-389 -75 -160 -228 -254 -412 -254 l-79 0 0 119 0 119 83 3 c105 5 151 31 191
110 26 52 26 55 26 276 l0 223 120 0 120 0 0 -207z m-900 -558 l0 -145 245 0
c141 0 266 -5 297 -11 227 -48 384 -272 349 -497 -28 -183 -170 -333 -349
-371 -29 -6 -141 -11 -249 -11 l-195 0 59 44 c58 42 119 114 144 169 12 26 14
27 103 27 107 0 154 18 203 73 68 78 68 186 0 264 -60 68 -82 73 -355 73 -140
0 -261 5 -286 11 -62 15 -135 75 -165 134 -33 63 -37 179 -8 237 26 51 83 107
131 129 77 35 76 38 76 -126z m-241 -289 c37 -60 108 -114 175 -135 l61 -19 3
-93 c3 -107 -12 -143 -70 -179 -66 -40 -156 -16 -198 52 -18 31 -20 50 -19
263 0 204 2 225 13 188 8 -23 23 -57 35 -77z m772 -179 c39 -26 69 -79 69
-122 0 -43 -30 -96 -69 -122 -28 -19 -47 -23 -114 -23 -78 0 -79 0 -72 23 4
12 9 77 12 145 l5 122 68 0 c53 0 74 -5 101 -23z"/>
<path d="M30 201 c0 -14 52 -154 60 -164 4 -5 17 19 30 52 12 34 25 61 29 61
3 0 17 -27 30 -61 13 -33 25 -58 28 -56 6 6 63 160 63 170 0 4 -4 7 -9 7 -5 0
-19 -30 -32 -67 -18 -55 -24 -64 -30 -48 -5 11 -18 43 -30 70 l-21 50 -27 -69
-28 -69 -24 66 c-21 59 -39 85 -39 58z"/>
<path d="M309 181 c-39 -40 -39 -82 0 -122 60 -60 151 -24 151 60 0 32 -6 44
-31 65 -41 35 -83 34 -120 -3z m111 -11 c11 -11 20 -33 20 -50 0 -63 -77 -94
-120 -48 -59 64 38 160 100 98z"/>
<path d="M535 198 c-33 -17 -45 -40 -45 -80 0 -84 91 -118 152 -58 26 27 30
36 25 68 -11 65 -77 101 -132 70z m90 -33 c30 -30 31 -54 4 -89 -42 -54 -119
-25 -119 45 0 66 68 92 115 44z"/>
<path d="M700 121 l0 -91 36 0 c26 0 43 8 65 29 56 57 25 137 -59 148 l-42 6
0 -92z m84 48 c16 -13 26 -30 26 -47 0 -33 -36 -72 -67 -72 -22 0 -23 3 -23
70 0 62 2 70 19 70 10 0 30 -9 45 -21z"/>
<path d="M868 204 c-11 -11 -10 -174 1 -174 6 0 11 19 13 43 3 42 3 42 46 45
l42 3 0 -45 c0 -25 5 -46 10 -46 6 0 10 37 10 90 0 53 -4 90 -10 90 -5 0 -10
-16 -10 -35 0 -35 0 -35 -44 -35 -44 0 -45 1 -48 36 -2 20 -6 32 -10 28z"/>
<path d="M1030 120 c0 -53 4 -90 10 -90 6 0 10 37 10 90 0 53 -4 90 -10 90 -6
0 -10 -37 -10 -90z"/>
<path d="M1090 120 l0 -90 35 0 c19 0 35 5 35 10 0 6 -11 10 -25 10 -25 0 -25
1 -25 80 0 47 -4 80 -10 80 -6 0 -10 -37 -10 -90z"/>
<path d="M1188 204 c-5 -4 -8 -45 -8 -91 l0 -83 35 0 c19 0 35 5 35 10 0 6
-11 10 -25 10 -23 0 -24 2 -27 81 -2 44 -6 77 -10 73z"/>
<path d="M1366 194 c-29 -28 -19 -52 32 -78 25 -13 32 -23 30 -39 -4 -29 -45
-35 -63 -10 -12 15 -14 15 -15 2 0 -23 21 -39 51 -39 34 0 51 21 47 57 -2 21
-12 32 -40 46 -40 18 -50 43 -22 54 9 3 25 1 35 -6 15 -9 19 -8 19 3 0 27 -50
34 -74 10z"/>
<path d="M1470 200 c0 -5 9 -10 20 -10 18 0 20 -7 20 -80 0 -47 4 -80 10 -80
6 0 10 33 10 80 0 73 2 80 20 80 11 0 20 5 20 10 0 6 -22 10 -50 10 -27 0 -50
-4 -50 -10z"/>
<path d="M1600 138 c0 -86 12 -108 59 -108 46 0 61 27 61 108 0 41 -4 72 -10
72 -6 0 -10 -30 -10 -69 0 -75 -12 -95 -52 -89 -21 3 -23 9 -26 73 -4 99 -22
109 -22 13z"/>
<path d="M1760 121 l0 -91 31 0 c59 0 98 35 99 87 0 46 -35 83 -88 90 l-42 6
0 -92z m84 48 c48 -38 22 -119 -39 -119 -24 0 -25 2 -25 70 0 62 2 70 19 70
10 0 30 -9 45 -21z"/>
<path d="M1927 203 c-11 -11 -8 -173 3 -173 6 0 10 37 10 90 0 90 -1 96 -13
83z"/>
<path d="M2019 195 c-38 -20 -52 -67 -35 -110 25 -59 93 -74 143 -31 22 19 28
32 28 66 0 73 -70 111 -136 75z m96 -30 c30 -30 31 -54 4 -89 -42 -54 -123
-23 -121 46 2 63 72 89 117 43z"/>
<path d="M2202 198 c-24 -24 -13 -57 28 -83 43 -27 47 -34 28 -53 -17 -17 -45
-15 -57 5 -5 10 -13 14 -17 10 -15 -14 12 -42 44 -45 24 -2 34 3 47 22 20 31
8 59 -35 81 -17 9 -30 22 -30 31 0 19 27 29 44 15 17 -14 29 -2 15 16 -14 16
-51 17 -67 1z"/>
</g>
</svg>
